<svg id="visual" viewBox="0 0 900 600" width="900" height="600" xmlns="http://www.w3.org/2000/svg" xmlns:xlink="http://www.w3.org/1999/xlink" version="1.1"><rect x="0" y="0" width="900" height="600" fill="#551A8B"></rect><path d="M0 368L10 362.5C20 357 40 346 60 362.5C80 379 100 423 120 430C140 437 160 407 180 373.7C200 340.3 220 303.7 240 300.3C260 297 280 327 300 346.8C320 366.7 340 376.3 360 401.7C380 427 400 468 420 479.2C440 490.3 460 471.7 480 429.3C500 387 520 321 540 279.2C560 237.3 580 219.7 600 214.8C620 210 640 218 660 261.2C680 304.3 700 382.7 720 394.5C740 406.3 760 351.7 780 325C800 298.3 820 299.7 840 284.2C860 268.7 880 236.3 890 220.2L900 204L900 601L890 601C880 601 860 601 840 601C820 601 800 601 780 601C760 601 740 601 720 601C700 601 680 601 660 601C640 601 620 601 600 601C580 601 560 601 540 601C520 601 500 601 480 601C460 601 440 601 420 601C400 601 380 601 360 601C340 601 320 601 300 601C280 601 260 601 240 601C220 601 200 601 180 601C160 601 140 601 120 601C100 601 80 601 60 601C40 601 20 601 10 601L0 601Z" fill="#D5C6E2" stroke-linecap="round" stroke-linejoin="miter"></path></svg>